<?xml version="1.0" standalone="no"?>
<!DOCTYPE svg PUBLIC "-//W3C//DTD SVG 20010904//EN"
 "http://www.w3.org/TR/2001/REC-SVG-20010904/DTD/svg10.dtd">
<svg version="1.0" xmlns="http://www.w3.org/2000/svg"
 width="331.000000pt" height="331.000000pt" viewBox="0 0 331.000000 331.000000"
 preserveAspectRatio="xMidYMid meet">
<metadata>
Created by potrace 1.11, written by Peter Selinger 2001-2013
</metadata>
<g transform="translate(0.000000,331.000000) scale(0.100000,-0.100000)"
fill="#000000" stroke="none">
<path d="M1500 3210 c-369 -46 -705 -222 -942 -495 -305 -350 -427 -821 -333
-1278 46 -222 146 -432 298 -625 56 -71 58 -61 -32 -149 -29 -29 -57 -50 -62
-47 -5 3 -26 0 -47 -5 -29 -8 -69 -42 -175 -149 l-137 -139 0 -51 c0 -90 72
-146 161 -127 23 5 66 39 142 114 135 130 167 173 167 218 0 29 11 46 62 99
33 35 65 64 70 64 4 0 46 -29 92 -64 508 -388 1203 -411 1728 -59 320 214 539
543 624 933 27 121 27 458 1 580 -128 598 -578 1046 -1166 1161 -122 23 -339
32 -451 19z m307 -151 c596 -66 1076 -521 1169 -1109 24 -152 15 -378 -21
-520 -26 -107 -74 -229 -126 -323 -19 -34 -29 -45 -29 -31 0 11 -5 25 -12 32
-9 9 -177 12 -696 12 l-683 0 7 23 c22 72 147 462 148 464 3 3 99 -128 105
-142 2 -5 17 -22 32 -37 47 -46 65 -28 128 125 29 73 64 155 76 182 l23 50 11
-30 c6 -16 15 -39 20 -50 29 -65 55 -128 116 -275 38 -91 75 -171 84 -177 11
-10 88 -13 310 -13 163 0 301 4 307 8 19 13 23 39 8 61 -15 21 -22 21 -292 21
l-277 1 -32 77 c-154 371 -218 519 -231 530 -41 32 -58 12 -121 -143 -5 -11
-13 -31 -19 -45 -15 -33 -62 -149 -74 -179 -8 -24 -9 -24 -26 -5 -9 10 -30 39
-47 64 -16 25 -32 47 -35 50 -3 3 -18 22 -33 43 -32 42 -60 47 -81 15 -8 -13
-44 -117 -81 -233 -36 -115 -78 -246 -93 -290 l-26 -80 -13 65 c-19 92 -18 88
-52 260 -17 85 -50 254 -74 375 -25 121 -43 223 -40 228 2 4 392 7 867 7 657
0 865 3 874 12 16 16 15 53 -1 67 -10 8 -262 12 -888 13 l-874 3 -12 49 c-7
27 -15 66 -18 85 -8 49 -34 74 -64 63 -23 -8 -28 -21 -65 -174 l-6 -28 -218 0
c-229 0 -242 -2 -242 -45 0 -42 14 -45 225 -45 111 0 204 -3 207 -6 3 -3 2
-21 -4 -41 -5 -19 -11 -43 -13 -52 -2 -10 -23 -100 -48 -202 -25 -101 -55
-229 -67 -284 -13 -55 -26 -104 -30 -108 -4 -5 -14 -2 -21 6 -47 46 -223 197
-231 197 -26 0 -48 -23 -47 -48 0 -20 14 -39 52 -71 29 -24 89 -78 135 -120
90 -82 136 -113 158 -104 16 6 25 33 64 198 17 72 45 186 61 255 80 337 91
380 100 380 5 0 9 -2 9 -5 0 -2 18 -93 39 -202 22 -109 42 -209 44 -223 5 -25
55 -273 63 -314 2 -12 7 -37 10 -56 3 -19 10 -53 15 -75 18 -82 44 -75 -284
-75 -215 0 -296 -3 -305 -12 -16 -16 -15 -53 1 -67 9 -7 114 -12 318 -13 l304
-3 10 -46 c12 -54 29 -78 53 -74 9 2 20 4 23 4 4 1 12 15 18 31 6 16 16 43 22
60 l11 30 703 2 703 3 -42 -59 c-182 -261 -489 -461 -816 -532 -118 -26 -401
-26 -517 -1 -263 57 -467 164 -657 348 -206 198 -328 419 -387 702 -28 131
-30 339 -5 477 92 513 477 927 981 1055 168 43 299 52 462 34z"/>
</g>
</svg>
